HIERARCHY
ROOT Hips
{
	OFFSET -0.001795 -0.223333 0.028219
	CHANNELS 6 Xposition Yposition Zposition Zrotation Yrotation Xrotation 
	JOINT LeftUpLeg
	{
		OFFSET 0.069520 -0.091406 -0.006815
		CHANNELS 3 Zrotation Yrotation Xrotation
		JOINT LeftLeg
		{
			OFFSET 0.034277 -0.375199 -0.004496
			CHANNELS 3 Zrotation Yrotation Xrotation
			JOINT LeftFoot
			{
				OFFSET -0.013596 -0.397961 -0.043693
				CHANNELS 3 Zrotation Yrotation Xrotation
				JOINT LeftToe
				{
					OFFSET 0.026358 -0.055791 0.119288
					CHANNELS 3 Zrotation Yrotation Xrotation
					End Site
					{
						OFFSET 0.000000 0.000000 0.000000
					}
				}
			}
		}
	}
	JOINT RightUpLeg
	{
		OFFSET -0.067670 -0.090522 -0.004320
		CHANNELS 3 Zrotation Yrotation Xrotation
		JOINT RightLeg
		{
			OFFSET -0.038290 -0.382569 -0.008850
			CHANNELS 3 Zrotation Yrotation Xrotation
			JOINT RightFoot
			{
				OFFSET 0.015774 -0.398415 -0.042312
				CHANNELS 3 Zrotation Yrotation Xrotation
				JOINT RightToe
				{
					OFFSET -0.025372 -0.048144 0.123348
					CHANNELS 3 Zrotation Yrotation Xrotation
					End Site
					{
						OFFSET 0.000000 0.000000 0.000000
					}
				}
			}
		}
	}
	JOINT Spine
	{
		OFFSET -0.002533 0.108963 -0.026696
		CHANNELS 3 Zrotation Yrotation Xrotation
		JOINT Spine1
		{
			OFFSET 0.005487 0.135180 0.001092
			CHANNELS 3 Zrotation Yrotation Xrotation
			JOINT Spine2
			{
				OFFSET 0.001457 0.052922 0.025425
				CHANNELS 3 Zrotation Yrotation Xrotation
				JOINT Neck
				{
					OFFSET -0.002778 0.213870 -0.042857
					CHANNELS 3 Zrotation Yrotation Xrotation
					JOINT Head
					{
						OFFSET 0.005152 0.064970 0.051349
						CHANNELS 3 Zrotation Yrotation Xrotation
						End Site
						{
							OFFSET 0.000000 0.000000 0.000000
						}
					}
				}
				JOINT LeftShoulder
				{
					OFFSET 0.078845 0.121749 -0.034090
					CHANNELS 3 Zrotation Yrotation Xrotation
					JOINT LeftArm
					{
						OFFSET 0.090977 0.030469 -0.008868
						CHANNELS 3 Zrotation Yrotation Xrotation
						JOINT LeftForeArm
						{
							OFFSET 0.259612 -0.012772 -0.027456
							CHANNELS 3 Zrotation Yrotation Xrotation
							JOINT LeftHand
							{
								OFFSET 0.249234 0.008986 -0.001171
								CHANNELS 3 Zrotation Yrotation Xrotation
								End Site
								{
									OFFSET 0.000000 0.000000 0.000000
								}
							}
						}
					}
				}
				JOINT RightShoulder
				{
					OFFSET -0.081759 0.118833 -0.038615
					CHANNELS 3 Zrotation Yrotation Xrotation
					JOINT RightArm
					{
						OFFSET -0.096012 0.032551 -0.009143
						CHANNELS 3 Zrotation Yrotation Xrotation
						JOINT RightForeArm
						{
							OFFSET -0.253742 -0.013329 -0.021401
							CHANNELS 3 Zrotation Yrotation Xrotation
							JOINT RightHand
							{
								OFFSET -0.255298 0.007772 -0.005559
								CHANNELS 3 Zrotation Yrotation Xrotation
								End Site
								{
									OFFSET 0.000000 0.000000 0.000000
								}
							}
						}
					}
				}
			}
		}
	}
}
MOTION
Frames: 7
Frame Time: 0.050000
0.400090 0.938106 0.134218 177.578550 22.781711 -179.601657 0.773621 -5.822017 -20.559037 -6.033772 -7.720626 5.026382 56.562009 -29.441182 23.266313 0.000000 0.000000 0.000000 -0.009358 -7.433046 9.151910 -1.065655 -7.374096 3.939457 44.999049 -7.477321 -16.602842 0.000000 0.000000 0.000000 -5.345102 -5.843373 21.111073 -5.102063 -1.275139 -28.496277 4.841876 16.061428 31.448385 5.807968 1.253789 -42.355137 0.000000 0.000000 0.000000 2.305048 -24.025303 -91.947359 -0.326976 64.727457 7.725892 -32.744236 -0.239724 -2.932310 0.000000 0.000000 0.000000 16.583537 -19.138838 76.715018 -38.876387 76.712261 -39.360566 -14.721609 15.737940 -4.434284 0.000000 0.000000 0.000000 
0.405165 0.932279 0.102783 177.457549 21.347663 -179.421012 -0.018131 -5.684818 -20.395498 -7.453917 -8.852443 7.152820 62.528552 -34.524008 25.072823 0.000000 0.000000 0.000000 -0.272717 -7.475991 8.365788 -2.753144 -9.961841 8.638344 50.556041 -4.429844 -17.871110 0.000000 0.000000 0.000000 -6.246942 -5.885569 21.076645 -5.297417 -1.494312 -28.183812 4.924087 16.222404 31.332049 6.911994 1.189419 -41.792196 0.000000 0.000000 0.000000 3.468066 -24.202058 -97.193832 9.836171 64.374746 15.380951 -32.843878 1.888075 -3.289704 0.000000 0.000000 0.000000 14.996119 -19.229933 82.019104 -56.777041 74.247480 -52.474060 -17.439481 13.537270 -4.571937 0.000000 0.000000 0.000000 
0.408808 0.929364 0.068770 177.336390 20.431242 179.625683 -0.768095 -4.767012 -18.844567 -8.902791 -10.001240 9.119697 68.487836 -37.751371 25.006802 0.000000 0.000000 0.000000 -1.486113 -8.047144 7.435048 -6.749457 -15.748580 17.044420 55.149462 -0.487278 -14.061702 0.000000 0.000000 0.000000 -7.681039 -6.560574 21.878915 -5.140867 -1.476683 -28.180048 5.708672 17.505941 32.346248 6.604119 0.882421 -42.405810 0.000000 0.000000 0.000000 4.128626 -24.013391 -103.116746 18.375403 63.671186 22.391963 -31.399918 2.651522 -3.155505 0.000000 0.000000 0.000000 12.859132 -19.334488 87.697999 -71.168869 69.711517 -60.243897 -19.305967 10.424949 -4.309935 0.000000 0.000000 0.000000 
0.411469 0.929429 0.033367 176.977740 18.471032 178.351793 -2.100346 -3.551588 -16.532944 -9.598660 -10.887897 10.851224 76.344866 -42.517478 22.798547 0.000000 0.000000 0.000000 -2.685932 -8.470355 3.496780 -20.242263 -26.508966 33.702750 66.514426 3.767996 -0.085409 0.000000 0.000000 0.000000 -8.750257 -7.025706 22.361214 -5.481265 -1.883687 -26.879032 5.841102 17.229118 32.206179 6.829979 -0.158530 -41.425743 0.000000 0.000000 0.000000 5.023986 -25.304642 -106.620808 22.529315 63.216220 26.245901 -30.667920 1.156150 -2.741273 0.000000 0.000000 0.000000 9.930647 -17.585702 95.361778 -82.310713 63.678127 -63.843524 -20.977991 6.313382 -3.961753 0.000000 0.000000 0.000000 
0.413955 0.931903 -0.001090 176.771851 16.402165 176.958542 -3.790343 -1.872227 -12.347761 -8.214017 -10.400099 10.697137 81.217180 -42.253386 16.880972 0.000000 0.000000 0.000000 -4.451690 -10.416252 -1.405408 -49.270237 -33.073202 59.123407 78.217389 2.880216 22.378542 0.000000 0.000000 0.000000 -9.943767 -8.049463 23.482715 -4.287853 -1.287559 -26.347296 4.727144 16.703724 31.321380 7.236017 -0.847631 -40.696635 0.000000 0.000000 0.000000 5.247054 -25.580179 -107.606505 23.892277 62.826091 27.368248 -31.826468 1.518063 -2.708510 0.000000 0.000000 0.000000 8.761648 -17.666829 96.298812 -85.619144 62.861301 -65.496971 -21.394215 6.111368 -3.954271 0.000000 0.000000 0.000000 
0.417374 0.935723 -0.033375 177.508655 14.946869 176.002870 -3.637838 -1.275074 -7.988693 -7.102274 -9.538950 9.144711 82.797185 -40.626272 13.346967 0.000000 0.000000 0.000000 -4.241197 -12.420353 -7.627492 -76.125516 -28.922969 76.769463 84.863252 -4.727464 41.966289 0.000000 0.000000 0.000000 -10.350555 -9.365611 25.311334 -3.790764 -1.029162 -27.588124 5.154734 16.403216 32.220196 7.314762 -1.557036 -40.307447 0.000000 0.000000 0.000000 5.018167 -26.203995 -108.769017 23.834758 62.126620 27.826436 -32.909011 1.167831 -2.301016 0.000000 0.000000 0.000000 7.302834 -17.960122 98.197729 -88.622034 62.108680 -66.437337 -23.017906 5.326391 -3.999938 0.000000 0.000000 0.000000 
0.422216 0.940203 -0.064072 178.582547 13.012926 175.485184 -3.303243 -1.588609 -3.963065 -5.596185 -8.411595 6.778694 84.802742 -40.641907 10.383594 0.000000 0.000000 0.000000 -3.296694 -14.517061 -12.280363 -81.386399 -27.147922 79.752190 84.686653 -1.670647 44.572390 0.000000 0.000000 0.000000 -9.447655 -10.276099 26.563830 -3.843960 -1.246752 -27.381724 4.947642 15.230833 31.500046 6.909159 -2.709674 -39.784054 0.000000 0.000000 0.000000 5.483637 -25.703956 -109.727394 22.964639 62.043872 27.053809 -34.113771 1.950304 -2.429602 0.000000 0.000000 0.000000 6.459984 -17.495952 99.379547 -92.058001 61.342369 -68.222763 -24.154608 3.596857 -3.823060 0.000000 0.000000 0.000000 
